<svg width="434" height="306" viewBox="0 0 434 306" fill="none" xmlns="http://www.w3.org/2000/svg">
<g clip-path="url(#clip0_1_3)">
<path d="M93 218C133.869 218 167 201.882 167 182C167 162.118 133.869 146 93 146C52.1309 146 19 162.118 19 182C19 201.882 52.1309 218 93 218Z" stroke="#00D084" stroke-width="18" stroke-linecap="round" stroke-linejoin="round"/>
<path d="M42 182C64.3167 202 122.683 202 145 182" stroke="#00D084" stroke-width="18" stroke-linecap="round" stroke-linejoin="round"/>
<path d="M209 214V24" stroke="#00D084" stroke-width="18" stroke-linecap="round" stroke-linejoin="round"/>
<path d="M209 24C173 30 145 50 125 82" stroke="#00D084" stroke-width="18" stroke-linecap="round" stroke-linejoin="round"/>
<path d="M209 24C201 62 179 92 147 112" stroke="#00D084" stroke-width="18" stroke-linecap="round" stroke-linejoin="round"/>
<path d="M209 24C233 34 253 52 269 76" stroke="#00D084" stroke-width="18" stroke-linecap="round" stroke-linejoin="round"/>
<path d="M209 24C217 58 209 86 187 112" stroke="#00D084" stroke-width="18" stroke-linecap="round" stroke-linejoin="round"/>
<path d="M209 24C179 8 147 8 115 24" stroke="#00D084" stroke-width="18" stroke-linecap="round" stroke-linejoin="round"/>
<path d="M209 24C237 7.99999 267 5.99999 297 16" stroke="#00D084" stroke-width="18" stroke-linecap="round" stroke-linejoin="round"/>
<path d="M239 214L303.5 94L368 214" stroke="#00D084" stroke-width="18" stroke-linecap="round" stroke-linejoin="round"/>
<path d="M357 115L415 214" stroke="#00D084" stroke-width="18" stroke-linecap="round" stroke-linejoin="round"/>
<path d="M357 115L337 150" stroke="#00D084" stroke-width="18" stroke-linecap="round" stroke-linejoin="round"/>
<path d="M380 96C392.703 96 403 85.7025 403 73C403 60.2975 392.703 50 380 50C367.297 50 357 60.2975 357 73C357 85.7025 367.297 96 380 96Z" stroke="#00D084" stroke-width="18" stroke-linecap="round" stroke-linejoin="round"/>
<path d="M9 242H425" stroke="#00D084" stroke-width="18" stroke-linecap="round" stroke-linejoin="round"/>
<path d="M85 269H333" stroke="#00D084" stroke-width="18" stroke-linecap="round" stroke-linejoin="round"/>
<path d="M150.5 297H266.5" stroke="#00D084" stroke-width="18" stroke-linecap="round" stroke-linejoin="round"/>
</g>
<defs>
<clipPath id="clip0_1_3">
<rect width="434" height="306" fill="white"/>
</clipPath>
</defs>
</svg>
